<svg width="14" height="20" viewBox="0 0 14 20" fill="none" xmlns="http://www.w3.org/2000/svg">
<path d="M0 19.3515V0.000164527H6.70257C7.53798 -0.00560955 8.36748 0.140643 9.15054 0.431778C9.89243 0.705559 10.5756 1.11775 11.1637 1.64645C11.7612 2.18966 12.2363 2.85381 12.5574 3.59476C12.8785 4.33571 13.0383 5.13651 13.0262 5.94397C13.0346 6.74683 12.873 7.54238 12.552 8.27832C12.231 9.01426 11.7578 9.67392 11.1637 10.2139C10.5757 10.7428 9.89253 11.1551 9.15054 11.4286C8.36804 11.7198 7.53911 11.8664 6.70419 11.861H3.05369V19.3475L0 19.3515ZM6.78355 8.94583C7.24674 8.95482 7.70681 8.86826 8.13507 8.69156C8.51251 8.53349 8.85304 8.29884 9.13515 8.00243C9.40158 7.72056 9.61231 7.39086 9.75626 7.03069C9.89699 6.68754 9.97039 6.32052 9.97247 5.94963C9.97004 5.17815 9.67012 4.43733 9.13515 3.88145C8.82929 3.57061 8.46334 3.32529 8.05961 3.16046C7.65587 2.99562 7.2228 2.91472 6.78678 2.92267H3.05369V8.94907L6.78355 8.94583Z" fill="#191919"/>
</svg>
