<?xml version="1.0" standalone="no"?>
<!DOCTYPE svg PUBLIC "-//W3C//DTD SVG 20010904//EN"
 "http://www.w3.org/TR/2001/REC-SVG-20010904/DTD/svg10.dtd">
<svg version="1.0" xmlns="http://www.w3.org/2000/svg"
 width="640.000000pt" height="640.000000pt" viewBox="0 0 640.000000 640.000000"
 preserveAspectRatio="xMidYMid meet">
<metadata>
Created by potrace 1.11, written by Peter Selinger 2001-2013
</metadata>
<g transform="translate(0.000000,640.000000) scale(0.100000,-0.100000)"
fill="#000000" stroke="none">
<path d="M0 3200 l0 -3200 3200 0 3200 0 0 3200 0 3200 -3200 0 -3200 0 0
-3200z m1731 626 c77 -17 133 -43 204 -97 113 -85 167 -208 162 -374 -3 -67
-9 -103 -25 -140 -33 -73 -85 -146 -100 -140 -7 3 -11 1 -8 -4 9 -14 -63 -71
-118 -96 -102 -44 -143 -50 -331 -50 -108 0 -183 -4 -187 -10 -4 -5 -8 -137
-8 -292 l0 -283 -115 0 -115 0 0 750 0 750 288 0 c208 0 305 -4 353 -14z
m2690 -452 c79 -24 119 -47 183 -105 94 -86 139 -183 157 -337 16 -148 61
-133 -392 -132 -214 1 -393 -2 -398 -4 -23 -15 36 -162 81 -202 81 -74 195
-107 295 -85 32 7 72 22 90 32 31 19 93 82 109 112 8 14 22 10 107 -32 l98
-47 -30 -40 c-121 -162 -262 -234 -461 -234 -61 0 -181 30 -239 60 -46 23
-127 90 -124 101 2 5 -1 8 -6 6 -5 -1 -23 16 -41 38 -118 147 -142 403 -56
592 31 67 84 135 98 127 7 -5 8 -2 4 5 -16 25 98 102 209 142 66 24 239 26
316 3z m1170 4 c33 -9 38 -15 33 -32 -3 -12 -17 -58 -32 -103 l-26 -82 -30 7
c-153 34 -287 -39 -336 -182 -18 -55 -20 -85 -20 -353 l0 -293 -115 0 -114 0
2 508 2 507 108 3 107 3 0 -81 c0 -44 3 -80 8 -80 4 1 20 21 35 45 30 48 88
93 159 125 50 22 160 26 219 8z m-3071 -527 l0 -510 -106 -3 c-58 -2 -108 -1
-110 1 -2 2 -4 233 -4 513 l0 508 110 0 110 0 0 -509z m491 432 c30 -43 76
-111 104 -151 27 -40 55 -78 62 -84 17 -14 19 -12 134 170 l91 143 134 -2
c128 -1 133 -2 123 -20 -5 -10 -14 -19 -19 -19 -6 0 -10 -5 -10 -11 0 -17
-251 -364 -262 -361 -5 1 -7 -2 -3 -8 3 -5 -5 -25 -19 -43 -15 -19 -26 -37
-26 -41 0 -6 39 -65 50 -76 3 -3 26 -34 50 -70 54 -79 94 -137 183 -264 37
-53 67 -98 67 -101 0 -3 -58 -5 -129 -5 l-130 0 -100 150 c-56 83 -101 153
-101 156 0 3 -6 12 -14 19 -12 12 -20 5 -56 -50 -23 -35 -47 -63 -52 -62 -6 1
-13 -5 -15 -13 -4 -13 -3 -13 6 0 22 30 10 -2 -14 -41 -15 -23 -30 -37 -37
-33 -7 4 -8 3 -4 -5 5 -7 -8 -35 -30 -66 l-37 -55 -129 0 c-70 0 -128 3 -128
7 0 3 6 14 14 22 7 9 48 67 91 130 42 62 81 119 86 125 6 6 43 60 84 121 l74
109 -17 28 c-9 16 -69 101 -132 191 -63 89 -134 190 -158 225 l-44 62 129 0
129 0 55 -77z"/>
<path d="M1320 3380 l0 -240 183 0 c203 0 241 9 300 71 121 127 72 337 -92
395 -24 9 -95 13 -213 14 l-178 0 0 -240z"/>
<path d="M4152 3188 c-51 -17 -118 -83 -147 -144 -14 -30 -23 -59 -20 -64 9
-15 555 -13 555 1 0 63 -65 156 -134 191 -48 25 -199 35 -254 16z"/>
</g>
</svg>
